<svg width="81" height="88" viewBox="0 0 81 88" fill="none" xmlns="http://www.w3.org/2000/svg">
<rect width="81" height="88" rx="12" fill="white" fill-opacity="0.05"/>
<path d="M13.4041 63V54.2727H16.6001C17.2195 54.2727 17.7322 54.375 18.1385 54.5795C18.5447 54.7812 18.8487 55.0554 19.0504 55.402C19.2521 55.7457 19.353 56.1335 19.353 56.5653C19.353 56.929 19.2862 57.2358 19.1527 57.4858C19.0192 57.733 18.8402 57.9318 18.6158 58.0824C18.3942 58.2301 18.1499 58.3381 17.8828 58.4062V58.4915C18.1726 58.5057 18.4553 58.5994 18.7308 58.7727C19.0092 58.9432 19.2393 59.1861 19.4212 59.5014C19.603 59.8168 19.6939 60.2003 19.6939 60.652C19.6939 61.098 19.5888 61.4986 19.3786 61.8537C19.1712 62.206 18.8501 62.4858 18.4155 62.6932C17.9808 62.8977 17.4254 63 16.7493 63H13.4041ZM14.7209 61.8707H16.6214C17.2521 61.8707 17.7038 61.7486 17.9766 61.5043C18.2493 61.2599 18.3857 60.9545 18.3857 60.5881C18.3857 60.3125 18.3161 60.0597 18.1768 59.8295C18.0376 59.5994 17.8388 59.4162 17.5803 59.2798C17.3246 59.1435 17.0206 59.0753 16.6683 59.0753H14.7209V61.8707ZM14.7209 58.0483H16.4851C16.7805 58.0483 17.0462 57.9915 17.282 57.8778C17.5206 57.7642 17.7095 57.6051 17.8487 57.4006C17.9908 57.1932 18.0618 56.9489 18.0618 56.6676C18.0618 56.3068 17.9354 56.0043 17.6825 55.7599C17.4297 55.5156 17.0419 55.3935 16.5192 55.3935H14.7209V58.0483ZM26.8679 54.2727H28.1889V60.0128C28.1889 60.6236 28.0455 61.1648 27.7585 61.6364C27.4716 62.1051 27.0682 62.4744 26.5483 62.7443C26.0284 63.0114 25.419 63.1449 24.7202 63.1449C24.0241 63.1449 23.4162 63.0114 22.8963 62.7443C22.3764 62.4744 21.973 62.1051 21.6861 61.6364C21.3991 61.1648 21.2557 60.6236 21.2557 60.0128V54.2727H22.5724V59.9062C22.5724 60.3011 22.6591 60.652 22.8324 60.9588C23.0085 61.2656 23.2571 61.5071 23.5781 61.6832C23.8991 61.8565 24.2798 61.9432 24.7202 61.9432C25.1634 61.9432 25.5455 61.8565 25.8665 61.6832C26.1903 61.5071 26.4375 61.2656 26.608 60.9588C26.7813 60.652 26.8679 60.3011 26.8679 59.9062V54.2727ZM31.4201 54.2727V63H30.1033V54.2727H31.4201ZM33.3377 63V54.2727H34.6545V61.8665H38.609V63H33.3377ZM42.9364 63H40.1112V54.2727H43.0259C43.881 54.2727 44.6154 54.4474 45.229 54.7969C45.8427 55.1435 46.3129 55.642 46.6396 56.2926C46.9691 56.9403 47.1339 57.7173 47.1339 58.6236C47.1339 59.5327 46.9677 60.3139 46.6353 60.9673C46.3058 61.6207 45.8285 62.1236 45.2035 62.4759C44.5785 62.8253 43.8228 63 42.9364 63ZM41.4279 61.8494H42.864C43.5288 61.8494 44.0813 61.7244 44.5217 61.4744C44.962 61.2216 45.2915 60.8565 45.5103 60.3793C45.729 59.8991 45.8384 59.3139 45.8384 58.6236C45.8384 57.9389 45.729 57.358 45.5103 56.8807C45.2944 56.4034 44.9719 56.0412 44.543 55.794C44.114 55.5469 43.5813 55.4233 42.945 55.4233H41.4279V61.8494ZM50.0881 54.2727V63H48.7713V54.2727H50.0881ZM59.0497 54.2727V63H57.8395L53.4034 56.5994H53.3224V63H52.0057V54.2727H53.2244L57.6648 60.6818H57.7457V54.2727H59.0497ZM66.8768 57.0298C66.7944 56.7713 66.6836 56.5398 66.5444 56.3352C66.408 56.1278 66.2447 55.9517 66.0543 55.8068C65.864 55.6591 65.6467 55.5469 65.4023 55.4702C65.1609 55.3935 64.8952 55.3551 64.6055 55.3551C64.114 55.3551 63.6708 55.4815 63.2759 55.7344C62.881 55.9872 62.5685 56.358 62.3384 56.8466C62.1112 57.3324 61.9975 57.9276 61.9975 58.6321C61.9975 59.3395 62.1126 59.9375 62.3427 60.4261C62.5728 60.9148 62.8881 61.2855 63.2887 61.5384C63.6893 61.7912 64.1452 61.9176 64.6566 61.9176C65.131 61.9176 65.5444 61.821 65.8967 61.6278C66.2518 61.4347 66.5259 61.1619 66.7191 60.8097C66.9151 60.4545 67.0131 60.0369 67.0131 59.5568L67.354 59.6207H64.8569V58.5341H68.2873V59.527C68.2873 60.2599 68.131 60.8963 67.8185 61.4361C67.5089 61.973 67.0799 62.3878 66.5316 62.6804C65.9862 62.973 65.3612 63.1193 64.6566 63.1193C63.8668 63.1193 63.1737 62.9375 62.5771 62.5739C61.9833 62.2102 61.5202 61.6946 61.1879 61.027C60.8555 60.3565 60.6893 59.5611 60.6893 58.6406C60.6893 57.9446 60.7859 57.3196 60.979 56.7656C61.1722 56.2116 61.4435 55.7415 61.793 55.3551C62.1452 54.9659 62.5586 54.669 63.033 54.4645C63.5103 54.2571 64.0316 54.1534 64.5969 54.1534C65.0685 54.1534 65.5075 54.223 65.9137 54.3622C66.3228 54.5014 66.6864 54.6989 67.0046 54.9545C67.3256 55.2102 67.5913 55.5142 67.8015 55.8665C68.0117 56.2159 68.1538 56.6037 68.2276 57.0298H66.8768Z" fill="white"/>
<path d="M45.978 74V69.6364H47.4503C47.7344 69.6364 47.9709 69.6861 48.1598 69.7855C48.3501 69.8849 48.4929 70.0206 48.5881 70.1925C48.6832 70.3643 48.7308 70.5597 48.7308 70.7784C48.7308 70.9602 48.7003 71.1158 48.6392 71.245C48.5781 71.3743 48.495 71.4787 48.3899 71.5582C48.2848 71.6378 48.1676 71.6953 48.0384 71.7308V71.7649C48.179 71.7749 48.3153 71.8246 48.4474 71.9141C48.5795 72.0021 48.6882 72.1257 48.7734 72.2848C48.8587 72.4439 48.9013 72.6342 48.9013 72.8558C48.9013 73.076 48.8523 73.2727 48.7543 73.446C48.6562 73.6179 48.5057 73.7536 48.3026 73.853C48.1009 73.951 47.8438 74 47.5312 74H45.978ZM46.3764 73.642H47.5312C47.8679 73.642 48.1165 73.5675 48.277 73.4183C48.4389 73.2692 48.5199 73.0817 48.5199 72.8558C48.5199 72.6896 48.4794 72.5391 48.3984 72.4041C48.3189 72.2678 48.206 72.1598 48.0597 72.0803C47.9148 72.0007 47.7443 71.9609 47.5483 71.9609H46.3764V73.642ZM46.3764 71.6072H47.4865C47.6584 71.6072 47.8089 71.5717 47.9382 71.5007C48.0675 71.4297 48.1683 71.3317 48.2408 71.2067C48.3132 71.0817 48.3494 70.9389 48.3494 70.7784C48.3494 70.5469 48.2741 70.3587 48.1236 70.2138C47.973 70.0675 47.7486 69.9943 47.4503 69.9943H46.3764V71.6072ZM49.8627 74V69.6364H50.2612V73.642H52.3407V74H49.8627ZM56.6452 71.8182C56.6452 72.2727 56.5643 72.6683 56.4023 73.005C56.2404 73.3402 56.0174 73.6001 55.7333 73.7848C55.4506 73.968 55.1254 74.0597 54.7575 74.0597C54.3896 74.0597 54.0636 73.968 53.7795 73.7848C53.4968 73.6001 53.2745 73.3402 53.1126 73.005C52.9521 72.6683 52.8718 72.2727 52.8718 71.8182C52.8718 71.3636 52.9521 70.9687 53.1126 70.6335C53.2745 70.2969 53.4975 70.0369 53.7816 69.8537C54.0657 69.669 54.391 69.5767 54.7575 69.5767C55.1254 69.5767 55.4506 69.669 55.7333 69.8537C56.0174 70.0369 56.2404 70.2969 56.4023 70.6335C56.5643 70.9687 56.6452 71.3636 56.6452 71.8182ZM56.2575 71.8182C56.2575 71.4276 56.1921 71.093 56.0614 70.8146C55.9308 70.5348 55.7525 70.321 55.5266 70.1733C55.3008 70.0256 55.0444 69.9517 54.7575 69.9517C54.4719 69.9517 54.2163 70.0256 53.9904 70.1733C53.7646 70.321 53.5856 70.5341 53.4535 70.8125C53.3228 71.0909 53.2575 71.4261 53.2575 71.8182C53.2575 72.2088 53.3228 72.5433 53.4535 72.8217C53.5842 73.1001 53.7624 73.3139 53.9883 73.4631C54.2141 73.6108 54.4705 73.6847 54.7575 73.6847C55.0444 73.6847 55.3008 73.6108 55.5266 73.4631C55.7539 73.3153 55.9329 73.1023 56.0636 72.8239C56.1942 72.544 56.2589 72.2088 56.2575 71.8182ZM61.0265 71H60.6259C60.5961 70.8509 60.5421 70.7131 60.464 70.5866C60.3873 70.4588 60.2907 70.3473 60.1742 70.2521C60.0577 70.157 59.9256 70.0831 59.7779 70.0305C59.6301 69.978 59.4703 69.9517 59.2985 69.9517C59.0229 69.9517 58.7715 70.0234 58.5442 70.1669C58.3184 70.3104 58.1373 70.5213 58.0009 70.7997C57.8659 71.0767 57.7985 71.4162 57.7985 71.8182C57.7985 72.223 57.8659 72.5639 58.0009 72.8409C58.1373 73.1179 58.3184 73.3281 58.5442 73.4716C58.7715 73.6136 59.0229 73.6847 59.2985 73.6847C59.4703 73.6847 59.6301 73.6584 59.7779 73.6058C59.9256 73.5533 60.0577 73.4801 60.1742 73.3864C60.2907 73.2912 60.3873 73.1797 60.464 73.0518C60.5421 72.924 60.5961 72.7855 60.6259 72.6364H61.0265C60.9909 72.8366 60.9242 73.0234 60.8262 73.1967C60.7296 73.3686 60.606 73.5192 60.4554 73.6484C60.3063 73.7777 60.1344 73.8786 59.9398 73.951C59.7452 74.0234 59.5314 74.0597 59.2985 74.0597C58.932 74.0597 58.6067 73.968 58.3226 73.7848C58.0385 73.6001 57.8155 73.3402 57.6536 73.005C57.4931 72.6697 57.4128 72.2741 57.4128 71.8182C57.4128 71.3622 57.4931 70.9666 57.6536 70.6314C57.8155 70.2962 58.0385 70.0369 58.3226 69.8537C58.6067 69.669 58.932 69.5767 59.2985 69.5767C59.5314 69.5767 59.7452 69.6129 59.9398 69.6854C60.1344 69.7564 60.3063 69.8572 60.4554 69.9879C60.606 70.1172 60.7296 70.2678 60.8262 70.4396C60.9242 70.6115 60.9909 70.7983 61.0265 71ZM61.9624 74V69.6364H62.3608V71.9865H62.3991L64.5298 69.6364H65.054L63.1896 71.6541L65.0455 74H64.5597L62.9425 71.9311L62.3608 72.5831V74H61.9624ZM68.1754 70.7273C68.1513 70.4844 68.044 70.2912 67.8537 70.1477C67.6634 70.0043 67.424 69.9325 67.1357 69.9325C66.9325 69.9325 66.7536 69.9673 66.5987 70.0369C66.4453 70.1065 66.3246 70.2031 66.2365 70.3267C66.1499 70.4489 66.1065 70.5881 66.1065 70.7443C66.1065 70.8594 66.1314 70.9602 66.1811 71.0469C66.2308 71.1335 66.2976 71.2081 66.3814 71.2706C66.4666 71.3317 66.5604 71.3842 66.6626 71.4283C66.7663 71.4723 66.8707 71.5092 66.9759 71.5391L67.4361 71.6712C67.5753 71.7095 67.7145 71.7585 67.8537 71.8182C67.9929 71.8778 68.12 71.9531 68.2351 72.044C68.3516 72.1335 68.4446 72.2436 68.5142 72.3743C68.5852 72.5036 68.6207 72.6591 68.6207 72.8409C68.6207 73.0739 68.5604 73.2834 68.4396 73.4695C68.3189 73.6555 68.1456 73.8033 67.9197 73.9126C67.6939 74.0206 67.4233 74.0746 67.108 74.0746C66.8111 74.0746 66.5533 74.0256 66.3345 73.9276C66.1158 73.8281 65.9439 73.6911 65.8189 73.5163C65.6939 73.3416 65.6236 73.1392 65.608 72.9091H66.017C66.0312 73.081 66.0881 73.2266 66.1875 73.3459C66.2869 73.4652 66.4162 73.5561 66.5753 73.6186C66.7344 73.6797 66.9119 73.7102 67.108 73.7102C67.3253 73.7102 67.5185 73.674 67.6875 73.6016C67.858 73.5277 67.9915 73.4254 68.0881 73.2947C68.1861 73.1626 68.2351 73.0092 68.2351 72.8345C68.2351 72.6868 68.1967 72.5632 68.12 72.4638C68.0433 72.3629 67.9361 72.2784 67.7983 72.2102C67.6619 72.142 67.5036 72.0817 67.3232 72.0291L66.8011 71.8757C66.4588 71.7734 66.1932 71.6321 66.0043 71.4517C65.8153 71.2713 65.7209 71.0412 65.7209 70.7614C65.7209 70.527 65.7834 70.321 65.9084 70.1435C66.0348 69.9645 66.2053 69.8253 66.4197 69.7259C66.6357 69.625 66.8778 69.5746 67.1463 69.5746C67.4176 69.5746 67.6577 69.6243 67.8665 69.7237C68.0753 69.8232 68.2408 69.9602 68.3629 70.1349C68.4865 70.3082 68.5526 70.5057 68.5611 70.7273H68.1754Z" fill="white"/>
<line x1="12" y1="70.5" x2="43" y2="70.5" stroke="white"/>
<path d="M62.9638 22.6148C62.9565 22.5907 62.9467 22.5694 62.9377 22.5458C62.9183 22.4946 62.8957 22.4454 62.8671 22.3977C62.853 22.3749 62.838 22.3523 62.8206 22.331C62.7882 22.2879 62.7518 22.2488 62.7114 22.2128C62.6926 22.1951 62.675 22.1768 62.6542 22.1606C62.6451 22.1547 62.6388 22.1451 62.6298 22.1393C62.5753 22.101 62.5173 22.0726 62.4575 22.0485C62.454 22.0472 62.4518 22.0434 62.448 22.0426L50.721 17.5089L50.7212 16.7561C50.7212 16.5712 50.7009 16.3921 50.6615 16.2174C50.5826 15.8702 50.4279 15.5443 50.2075 15.2396C50.0977 15.0882 49.9711 14.9411 49.83 14.8006C48.1353 13.1068 44.2826 12.2109 40.6037 12.2109H40.6027C36.3111 12.2109 31.7834 13.4304 30.7188 15.7126C30.5666 16.0386 30.4853 16.3871 30.4853 16.7561V17.2897L18.5545 21.8303C18.5482 21.8326 18.5427 21.8377 18.5369 21.8407C18.4789 21.8635 18.4234 21.8907 18.3714 21.9267C18.3629 21.9325 18.3571 21.9409 18.3488 21.9467C18.3272 21.9635 18.3091 21.9812 18.2898 21.9995C18.2499 22.0368 18.2132 22.0735 18.1813 22.1164C18.1642 22.1392 18.1489 22.1618 18.1341 22.1854C18.1057 22.2308 18.0834 22.2785 18.0638 22.33C18.0542 22.3536 18.0439 22.3764 18.0367 22.4013C18.0161 22.4746 18.0025 22.5509 18.001 22.6295C18.001 22.6318 18 22.6341 18 22.6376V22.6389V34.516C18 34.8741 18.2192 35.1965 18.5512 35.3241L40.2971 43.7326C40.3047 43.7348 40.3137 43.7336 40.3215 43.7371C40.4134 43.7693 40.5078 43.7899 40.6032 43.7899C40.6987 43.7899 40.7923 43.7693 40.8827 43.7386C40.8903 43.7364 40.8986 43.7374 40.9056 43.7336L62.4445 35.5361C62.7785 35.4088 62.9995 35.0867 62.9995 34.7258L63 22.8513C62.9995 22.7699 62.9854 22.6912 62.9638 22.6149L62.9638 22.6148ZM32.2384 16.5352C32.6173 15.407 35.7942 13.9435 40.6033 13.9435C44.7716 13.9435 47.7139 15.0431 48.6705 16.0708C48.891 16.3072 49.0062 16.5413 49.0062 16.7559C49.0062 17.9018 45.7334 19.5672 40.6041 19.5672C35.4745 19.5672 32.2007 17.9018 32.2007 16.7559C32.2009 16.6843 32.214 16.6103 32.2386 16.5352L32.2384 16.5352ZM49.0067 19.3597V22.3259C49.0067 23.4718 45.7347 25.1372 40.6058 25.1372V21.3008C43.778 21.2995 47.0711 20.6296 49.0067 19.3597V19.3597ZM40.6058 30.1219L21.2732 22.6464L30.4853 19.1407V22.3256C30.4853 25.2777 35.6985 26.8702 40.6033 26.8702C45.509 26.8702 50.7225 25.2781 50.7225 22.3256V19.3626L59.727 22.8448L53.6533 25.1557L40.6058 30.1219ZM61.2853 34.1275L41.4621 41.6718V31.6472L61.2859 24.1029L61.2857 34.1275H61.2853Z" fill="url(#paint0_linear_27_7790)"/>
<defs>
<linearGradient id="paint0_linear_27_7790" x1="43" y1="14.5" x2="51.6144" y2="40.9628" gradientUnits="userSpaceOnUse">
<stop stop-color="white"/>
<stop offset="1" stop-color="white" stop-opacity="0"/>
</linearGradient>
</defs>
</svg>
