<svg width="113" height="40" viewBox="0 0 113 40" fill="none" xmlns="http://www.w3.org/2000/svg">
<path d="M112.5 20C112.5 22.5553 111.038 25.0587 108.239 27.4015C105.442 29.7419 101.366 31.8721 96.2847 33.6708C86.1266 37.2666 72.0606 39.5 56.5 39.5C40.9394 39.5 26.8734 37.2666 16.7153 33.6708C11.634 31.8721 7.55752 29.7419 4.76095 27.4015C1.9617 25.0587 0.5 22.5553 0.5 20C0.5 17.4447 1.9617 14.9413 4.76095 12.5985C7.55752 10.2581 11.634 8.12788 16.7153 6.32921C26.8734 2.73343 40.9394 0.5 56.5 0.5C72.0606 0.5 86.1266 2.73343 96.2847 6.32921C101.366 8.12788 105.442 10.2581 108.239 12.5985C111.038 14.9413 112.5 17.4447 112.5 20Z" stroke="#F2FD31"/>
</svg>
