<svg id="Layer_1" data-name="Layer 1" xmlns="http://www.w3.org/2000/svg" xmlns:xlink="http://www.w3.org/1999/xlink" viewBox="0 0 781.5 694.46"><defs><style>.cls-1{opacity:0.81;fill:url(#linear-gradient);}</style><linearGradient id="linear-gradient" x1="251.81" y1="426.06" x2="948.14" y2="780.84" gradientUnits="userSpaceOnUse"><stop offset="0.01" stop-color="#a400aa"/><stop offset="0.17" stop-color="#b70e8b"/><stop offset="0.44" stop-color="#d62459"/><stop offset="0.68" stop-color="#ec3434"/><stop offset="0.88" stop-color="#fa3e1d"/><stop offset="1" stop-color="#ff4215"/></linearGradient></defs><path class="cls-1" d="M437.88,220.11,188,607.14S86,747,252,847.11c143.37,58.22,236.72-29.93,266.62-71.28s175.1-271.54,175.1-271.54l112.87,172c11.35,19.89,9.58,43.31-4.64,60.13-16.18,19.14-41.29,21.21-45.39,21.49-56.74,0-83-.55-83-.55L592.33,865.74l181.31.67c8.61-.24,88.09-3.72,135.89-65.24,53.59-68.95,16.87-145.84,14.81-150C821.84,484.7,693.72,292.07,693.72,292.07l-280,435.87s-32.95,50.61-97,29.38c-51.25-32.65-47.59-60.4-23.8-104.47S600.37,182.7,600.37,182.7,515.16,141.62,437.88,220.11Z" transform="translate(-157.02 -171.96)"/></svg>